<svg role="img" viewBox="0 0 24 24" xmlns="http://www.w3.org/2000/svg"><title>Guitar Pro</title><path d="M16.908 7.617v1.33c0 .76-.51 1.26-1.14 1.26-.63 0-1.153-.51-1.153-1.26v-1.33c0-.796.523-1.26 1.153-1.26s1.14.464 1.14 1.26ZM8.666 6.393c-.63 0-1.14.475-1.14 1.271v1.26c0 .76.51 1.259 1.14 1.259.594 0 1.093-.463 1.152-1.14V7.546c-.06-.725-.558-1.153-1.152-1.153Zm13.557.9c0 3.72-6.789 16.734-10.223 16.707C8.592 23.973 1.777 11.012 1.777 7.293 1.777 3.573 6.424 0 12 0c5.576 0 10.223 3.574 10.223 7.293ZM11.556 5.11H9.857l-.06.808a2.275 2.275 0 0 0-1.77-.808c-1.247 0-2.257.986-2.257 2.352v1.711c0 1.343 1.01 2.352 2.257 2.352a2.333 2.333 0 0 0 1.77-.808l.013-.011v.902c0 .713-.488.998-1.058.998-.748 0-1.402-.38-1.996-.843l-.202 1.746c.654.333 1.33.523 2.424.523 1.652 0 2.578-1.235 2.578-2.97V5.11Zm7.093 2.305c0-1.354-1.01-2.34-2.257-2.34-.713 0-1.367.297-1.77.795l-.06-.784-1.687.286v8.72l1.747-.238v-3.112a2.364 2.364 0 0 0 1.77.796c1.247 0 2.257-.998 2.257-2.34V7.414Z"/></svg>